<?xml version="1.0" encoding="UTF-8"?>
<svg xmlns="http://www.w3.org/2000/svg" xmlns:xlink="http://www.w3.org/1999/xlink" width="1200" height="715" viewBox="0 0 1200 715">
<defs>
<g>
<g id="glyph-0-0">
<path d="M 6.78125 -5.03125 C 6.78125 -1.675781 5.726562 0 3.625 0 C 2.613281 0 1.847656 -0.425781 1.328125 -1.28125 C 0.816406 -2.132812 0.5625 -3.382812 0.5625 -5.03125 C 0.5625 -6.644531 0.816406 -7.875 1.328125 -8.71875 C 1.847656 -9.570312 2.632812 -10 3.6875 -10 C 4.695312 -10 5.460938 -9.578125 5.984375 -8.734375 C 6.515625 -7.898438 6.78125 -6.664062 6.78125 -5.03125 Z M 5.453125 -5.03125 C 5.453125 -6.582031 5.304688 -7.703125 5.015625 -8.390625 C 4.722656 -9.078125 4.257812 -9.421875 3.625 -9.421875 C 3 -9.421875 2.550781 -9.09375 2.28125 -8.4375 C 2.007812 -7.789062 1.875 -6.65625 1.875 -5.03125 C 1.875 -3.394531 2.007812 -2.238281 2.28125 -1.5625 C 2.5625 -0.894531 3.007812 -0.5625 3.625 -0.5625 C 4.257812 -0.5625 4.722656 -0.914062 5.015625 -1.625 C 5.304688 -2.332031 5.453125 -3.46875 5.453125 -5.03125 Z M 5.453125 -5.03125 "/>
</g>
<g id="glyph-0-1">
<path d="M 2.703125 -0.875 C 2.703125 -0.632812 2.617188 -0.425781 2.453125 -0.25 C 2.285156 -0.0820312 2.078125 0 1.828125 0 C 1.585938 0 1.382812 -0.0820312 1.21875 -0.25 C 1.050781 -0.425781 0.96875 -0.632812 0.96875 -0.875 C 0.96875 -1.113281 1.050781 -1.316406 1.21875 -1.484375 C 1.382812 -1.660156 1.585938 -1.75 1.828125 -1.75 C 2.078125 -1.75 2.285156 -1.660156 2.453125 -1.484375 C 2.617188 -1.316406 2.703125 -1.113281 2.703125 -0.875 Z M 2.703125 -0.875 "/>
</g>
<g id="glyph-0-2">
<path d="M 0.46875 -7 C 0.46875 -7.945312 0.738281 -8.679688 1.28125 -9.203125 C 1.820312 -9.734375 2.582031 -10 3.5625 -10 C 4.65625 -10 5.457031 -9.597656 5.96875 -8.796875 C 6.476562 -8.003906 6.734375 -6.753906 6.734375 -5.046875 C 6.734375 -3.410156 6.40625 -2.160156 5.75 -1.296875 C 5.09375 -0.429688 4.175781 0 3 0 C 2.21875 0 1.503906 -0.0820312 0.859375 -0.25 L 0.859375 -1.984375 L 1.3125 -1.984375 L 1.5625 -0.890625 C 1.71875 -0.816406 1.925781 -0.75 2.1875 -0.6875 C 2.445312 -0.625 2.707031 -0.59375 2.96875 -0.59375 C 3.726562 -0.59375 4.3125 -0.945312 4.71875 -1.65625 C 5.132812 -2.363281 5.363281 -3.398438 5.40625 -4.765625 C 4.675781 -4.359375 3.9375 -4.15625 3.1875 -4.15625 C 2.34375 -4.15625 1.675781 -4.40625 1.1875 -4.90625 C 0.707031 -5.40625 0.46875 -6.101562 0.46875 -7 Z M 3.578125 -9.421875 C 2.390625 -9.421875 1.796875 -8.597656 1.796875 -6.953125 C 1.796875 -6.234375 1.9375 -5.703125 2.21875 -5.359375 C 2.507812 -5.015625 2.953125 -4.84375 3.546875 -4.84375 C 4.171875 -4.84375 4.796875 -4.96875 5.421875 -5.21875 C 5.421875 -6.664062 5.273438 -7.726562 4.984375 -8.40625 C 4.691406 -9.082031 4.222656 -9.421875 3.578125 -9.421875 Z M 3.578125 -9.421875 "/>
</g>
<g id="glyph-0-3">
<path d="M 6.90625 -3.09375 C 6.90625 -2.101562 6.648438 -1.335938 6.140625 -0.796875 C 5.640625 -0.265625 4.914062 0 3.96875 0 C 2.882812 0 2.054688 -0.421875 1.484375 -1.265625 C 0.910156 -2.117188 0.625 -3.347656 0.625 -4.953125 C 0.625 -6.003906 0.773438 -6.910156 1.078125 -7.671875 C 1.378906 -8.429688 1.800781 -9.007812 2.34375 -9.40625 C 2.882812 -9.800781 3.515625 -10 4.234375 -10 C 4.921875 -10 5.613281 -9.914062 6.3125 -9.75 L 6.3125 -8.03125 L 5.84375 -8.03125 L 5.59375 -9.046875 C 5.425781 -9.148438 5.207031 -9.234375 4.9375 -9.296875 C 4.675781 -9.359375 4.441406 -9.390625 4.234375 -9.390625 C 3.535156 -9.390625 2.988281 -9.035156 2.59375 -8.328125 C 2.207031 -7.628906 1.992188 -6.597656 1.953125 -5.234375 C 2.734375 -5.640625 3.515625 -5.84375 4.296875 -5.84375 C 5.140625 -5.84375 5.785156 -5.609375 6.234375 -5.140625 C 6.679688 -4.671875 6.90625 -3.988281 6.90625 -3.09375 Z M 3.9375 -0.5625 C 4.507812 -0.5625 4.925781 -0.742188 5.1875 -1.109375 C 5.445312 -1.484375 5.578125 -2.097656 5.578125 -2.953125 C 5.578125 -3.734375 5.453125 -4.296875 5.203125 -4.640625 C 4.953125 -4.984375 4.5625 -5.15625 4.03125 -5.15625 C 3.375 -5.15625 2.679688 -5.035156 1.953125 -4.796875 C 1.953125 -3.367188 2.113281 -2.304688 2.4375 -1.609375 C 2.769531 -0.910156 3.269531 -0.5625 3.9375 -0.5625 Z M 3.9375 -0.5625 "/>
</g>
<g id="glyph-0-4">
<path d="M 5.796875 -1.890625 L 5.796875 0 L 4.578125 0 L 4.578125 -1.890625 L 0.28125 -1.890625 L 0.28125 -2.84375 L 4.984375 -10 L 5.796875 -10 L 5.796875 -2.921875 L 7.109375 -2.921875 L 7.109375 -1.890625 Z M 4.578125 -8.171875 L 4.53125 -8.171875 L 1.09375 -2.921875 L 4.578125 -2.921875 Z M 4.578125 -8.171875 "/>
</g>
<g id="glyph-0-5">
<path d="M 6.484375 -7.59375 C 6.484375 -7.09375 6.351562 -6.664062 6.09375 -6.3125 C 5.84375 -5.957031 5.5 -5.6875 5.0625 -5.5 C 5.601562 -5.289062 6.023438 -4.960938 6.328125 -4.515625 C 6.628906 -4.066406 6.78125 -3.519531 6.78125 -2.875 C 6.78125 -1.914062 6.523438 -1.195312 6.015625 -0.71875 C 5.503906 -0.238281 4.707031 0 3.625 0 C 1.582031 0 0.5625 -0.957031 0.5625 -2.875 C 0.5625 -3.539062 0.710938 -4.09375 1.015625 -4.53125 C 1.316406 -4.96875 1.726562 -5.289062 2.25 -5.5 C 1.84375 -5.6875 1.507812 -5.957031 1.25 -6.3125 C 0.988281 -6.664062 0.859375 -7.09375 0.859375 -7.59375 C 0.859375 -8.351562 1.097656 -8.941406 1.578125 -9.359375 C 2.066406 -9.785156 2.769531 -10 3.6875 -10 C 4.570312 -10 5.257812 -9.789062 5.75 -9.375 C 6.238281 -8.957031 6.484375 -8.363281 6.484375 -7.59375 Z M 5.484375 -2.859375 C 5.484375 -3.679688 5.332031 -4.273438 5.03125 -4.640625 C 4.738281 -5.003906 4.269531 -5.1875 3.625 -5.1875 C 2.988281 -5.1875 2.53125 -5.007812 2.25 -4.65625 C 1.976562 -4.3125 1.84375 -3.710938 1.84375 -2.859375 C 1.84375 -2.015625 1.984375 -1.421875 2.265625 -1.078125 C 2.546875 -0.734375 3 -0.5625 3.625 -0.5625 C 4.257812 -0.5625 4.726562 -0.738281 5.03125 -1.09375 C 5.332031 -1.445312 5.484375 -2.035156 5.484375 -2.859375 Z M 5.1875 -7.59375 C 5.1875 -8.21875 5.054688 -8.675781 4.796875 -8.96875 C 4.546875 -9.269531 4.160156 -9.421875 3.640625 -9.421875 C 3.128906 -9.421875 2.75 -9.273438 2.5 -8.984375 C 2.257812 -8.703125 2.140625 -8.238281 2.140625 -7.59375 C 2.140625 -6.96875 2.257812 -6.515625 2.5 -6.234375 C 2.738281 -5.953125 3.117188 -5.8125 3.640625 -5.8125 C 4.171875 -5.8125 4.5625 -5.953125 4.8125 -6.234375 C 5.0625 -6.515625 5.1875 -6.96875 5.1875 -7.59375 Z M 5.1875 -7.59375 "/>
</g>
<g id="glyph-0-6">
<path d="M 1.4375 -7.703125 L 0.96875 -7.703125 L 0.96875 -10 L 6.90625 -10 L 6.90625 -9.4375 L 2.625 0 L 1.703125 0 L 5.90625 -8.890625 L 1.6875 -8.890625 Z M 1.4375 -7.703125 "/>
</g>
<g id="glyph-0-7">
<path d="M 4.484375 -0.59375 L 6.453125 -0.390625 L 6.453125 0 L 1.296875 0 L 1.296875 -0.390625 L 3.265625 -0.59375 L 3.265625 -8.6875 L 1.3125 -7.96875 L 1.3125 -8.359375 L 4.125 -10 L 4.484375 -10 Z M 4.484375 -0.59375 "/>
</g>
<g id="glyph-0-8">
<path d="M 3.46875 -5.796875 C 4.582031 -5.796875 5.410156 -5.566406 5.953125 -5.109375 C 6.492188 -4.648438 6.765625 -3.953125 6.765625 -3.015625 C 6.765625 -2.046875 6.46875 -1.300781 5.875 -0.78125 C 5.289062 -0.257812 4.453125 0 3.359375 0 C 2.453125 0 1.644531 -0.101562 0.9375 -0.3125 L 0.859375 -2.359375 L 1.328125 -2.359375 L 1.640625 -0.984375 C 1.859375 -0.867188 2.113281 -0.773438 2.40625 -0.703125 C 2.695312 -0.628906 2.976562 -0.59375 3.25 -0.59375 C 4 -0.59375 4.550781 -0.773438 4.90625 -1.140625 C 5.257812 -1.503906 5.4375 -2.109375 5.4375 -2.953125 C 5.4375 -3.546875 5.359375 -3.992188 5.203125 -4.296875 C 5.054688 -4.609375 4.816406 -4.835938 4.484375 -4.984375 C 4.148438 -5.128906 3.703125 -5.203125 3.140625 -5.203125 C 2.703125 -5.203125 2.273438 -5.144531 1.859375 -5.03125 L 1.171875 -5.03125 L 1.171875 -10 L 6.046875 -10 L 6.046875 -8.890625 L 1.8125 -8.890625 L 1.8125 -5.625 C 2.332031 -5.738281 2.882812 -5.796875 3.46875 -5.796875 Z M 3.46875 -5.796875 "/>
</g>
<g id="glyph-0-9">
<path d="M 6.53125 0 L 0.640625 0 L 0.640625 -1.078125 L 1.984375 -2.328125 C 2.835938 -3.109375 3.460938 -3.734375 3.859375 -4.203125 C 4.265625 -4.679688 4.550781 -5.175781 4.71875 -5.6875 C 4.894531 -6.195312 4.984375 -6.78125 4.984375 -7.4375 C 4.984375 -8.070312 4.84375 -8.554688 4.5625 -8.890625 C 4.28125 -9.222656 3.820312 -9.390625 3.1875 -9.390625 C 2.925781 -9.390625 2.660156 -9.351562 2.390625 -9.28125 C 2.128906 -9.21875 1.894531 -9.125 1.6875 -9 L 1.4375 -7.78125 L 0.96875 -7.78125 L 0.96875 -9.6875 C 1.832031 -9.894531 2.570312 -10 3.1875 -10 C 4.226562 -10 5.015625 -9.769531 5.546875 -9.3125 C 6.078125 -8.863281 6.34375 -8.234375 6.34375 -7.421875 C 6.34375 -6.859375 6.238281 -6.332031 6.03125 -5.84375 C 5.820312 -5.351562 5.5 -4.863281 5.0625 -4.375 C 4.632812 -3.894531 3.925781 -3.21875 2.9375 -2.34375 C 2.507812 -1.976562 2.054688 -1.570312 1.578125 -1.125 L 6.53125 -1.125 Z M 6.53125 0 "/>
</g>
<g id="glyph-0-10">
<path d="M 6.765625 -2.953125 C 6.765625 -2.023438 6.46875 -1.300781 5.875 -0.78125 C 5.28125 -0.257812 4.441406 0 3.359375 0 C 2.453125 0 1.59375 -0.101562 0.78125 -0.3125 L 0.703125 -2.46875 L 1.171875 -2.46875 L 1.5 -1.015625 C 1.6875 -0.898438 1.945312 -0.800781 2.28125 -0.71875 C 2.625 -0.632812 2.945312 -0.59375 3.25 -0.59375 C 4 -0.59375 4.550781 -0.78125 4.90625 -1.15625 C 5.257812 -1.53125 5.4375 -2.160156 5.4375 -3.046875 C 5.4375 -3.742188 5.269531 -4.269531 4.9375 -4.625 C 4.613281 -4.976562 4.109375 -5.15625 3.421875 -5.15625 L 2.390625 -5.15625 L 2.390625 -5.84375 L 3.421875 -5.84375 C 3.960938 -5.84375 4.359375 -5.988281 4.609375 -6.28125 C 4.867188 -6.582031 5 -7.023438 5 -7.609375 C 5 -8.234375 4.859375 -8.6875 4.578125 -8.96875 C 4.296875 -9.25 3.851562 -9.390625 3.25 -9.390625 C 2.988281 -9.390625 2.71875 -9.359375 2.4375 -9.296875 C 2.164062 -9.234375 1.925781 -9.144531 1.71875 -9.03125 L 1.46875 -7.921875 L 1 -7.921875 L 1 -9.6875 C 1.46875 -9.8125 1.875 -9.894531 2.21875 -9.9375 C 2.5625 -9.976562 2.90625 -10 3.25 -10 C 5.300781 -10 6.328125 -9.25 6.328125 -7.75 C 6.328125 -7.101562 6.144531 -6.59375 5.78125 -6.21875 C 5.414062 -5.84375 4.898438 -5.609375 4.234375 -5.515625 C 5.097656 -5.398438 5.734375 -5.128906 6.140625 -4.703125 C 6.554688 -4.285156 6.765625 -3.703125 6.765625 -2.953125 Z M 6.765625 -2.953125 "/>
</g>
<g id="glyph-0-11">
<path d="M 2.25 0 L 2.25 -0.390625 L 3.78125 -0.59375 L 3.78125 -9.375 L 3.421875 -9.375 C 2.210938 -9.375 1.382812 -9.328125 0.9375 -9.234375 L 0.75 -7.671875 L 0.265625 -7.671875 L 0.265625 -10 L 8.71875 -10 L 8.71875 -7.671875 L 8.234375 -7.671875 L 8.03125 -9.328125 C 7.894531 -9.359375 7.582031 -9.375 7.09375 -9.375 C 6.613281 -9.375 6.085938 -9.375 5.515625 -9.375 L 5.171875 -9.375 L 5.171875 -0.59375 L 6.6875 -0.390625 L 6.6875 0 Z M 2.25 0 "/>
</g>
<g id="glyph-0-12">
<path d="M 2.71875 -9.21875 C 2.71875 -9 2.640625 -8.8125 2.484375 -8.65625 C 2.328125 -8.5 2.144531 -8.421875 1.9375 -8.421875 C 1.726562 -8.421875 1.546875 -8.5 1.390625 -8.65625 C 1.234375 -8.8125 1.15625 -9 1.15625 -9.21875 C 1.15625 -9.425781 1.234375 -9.609375 1.390625 -9.765625 C 1.546875 -9.921875 1.726562 -10 1.9375 -10 C 2.144531 -10 2.328125 -9.921875 2.484375 -9.765625 C 2.640625 -9.609375 2.71875 -9.425781 2.71875 -9.21875 Z M 2.640625 -0.515625 L 3.796875 -0.328125 L 3.796875 0 L 0.3125 0 L 0.3125 -0.328125 L 1.453125 -0.515625 L 1.453125 -6.484375 L 0.5 -6.671875 L 0.5 -7 L 2.640625 -7 Z M 2.640625 -0.515625 "/>
</g>
<g id="glyph-0-13">
<path d="M 2.328125 -6.453125 C 2.691406 -6.660156 3.070312 -6.800781 3.46875 -6.875 C 3.875 -6.957031 4.226562 -7 4.53125 -7 C 4.863281 -7 5.171875 -6.9375 5.453125 -6.8125 C 5.734375 -6.6875 5.941406 -6.492188 6.078125 -6.234375 C 6.441406 -6.441406 6.867188 -6.617188 7.359375 -6.765625 C 7.859375 -6.921875 8.269531 -7 8.59375 -7 C 9.738281 -7 10.3125 -6.332031 10.3125 -5 L 10.3125 -0.515625 L 11.1875 -0.328125 L 11.1875 0 L 8.125 0 L 8.125 -0.328125 L 9.125 -0.515625 L 9.125 -4.859375 C 9.125 -5.691406 8.742188 -6.109375 7.984375 -6.109375 C 7.859375 -6.109375 7.710938 -6.097656 7.546875 -6.078125 C 7.378906 -6.066406 7.210938 -6.046875 7.046875 -6.015625 C 6.890625 -5.992188 6.734375 -5.96875 6.578125 -5.9375 C 6.429688 -5.90625 6.304688 -5.878906 6.203125 -5.859375 C 6.285156 -5.597656 6.328125 -5.3125 6.328125 -5 L 6.328125 -0.515625 L 7.34375 -0.328125 L 7.34375 0 L 4.140625 0 L 4.140625 -0.328125 L 5.140625 -0.515625 L 5.140625 -4.859375 C 5.140625 -5.265625 5.035156 -5.570312 4.828125 -5.78125 C 4.628906 -6 4.328125 -6.109375 3.921875 -6.109375 C 3.492188 -6.109375 2.96875 -6.039062 2.34375 -5.90625 L 2.34375 -0.515625 L 3.359375 -0.328125 L 3.359375 0 L 0.3125 0 L 0.3125 -0.328125 L 1.15625 -0.515625 L 1.15625 -6.359375 L 0.3125 -6.59375 L 0.3125 -7 L 2.28125 -7 Z M 2.328125 -6.453125 "/>
</g>
<g id="glyph-0-14">
<path d="M 1.859375 -3.21875 L 1.859375 -3.09375 C 1.859375 -2.507812 1.929688 -2.054688 2.078125 -1.734375 C 2.222656 -1.410156 2.445312 -1.164062 2.75 -1 C 3.050781 -0.832031 3.453125 -0.75 3.953125 -0.75 C 4.203125 -0.75 4.503906 -0.765625 4.859375 -0.796875 C 5.210938 -0.835938 5.503906 -0.882812 5.734375 -0.9375 L 5.734375 -0.5625 C 5.503906 -0.414062 5.191406 -0.285156 4.796875 -0.171875 C 4.410156 -0.0546875 4.007812 0 3.59375 0 C 2.550781 0 1.785156 -0.273438 1.296875 -0.828125 C 0.816406 -1.390625 0.578125 -2.289062 0.578125 -3.53125 C 0.578125 -4.695312 0.820312 -5.566406 1.3125 -6.140625 C 1.800781 -6.710938 2.503906 -7 3.421875 -7 C 5.140625 -7 6 -5.945312 6 -3.84375 L 6 -3.21875 Z M 3.421875 -6.421875 C 2.921875 -6.421875 2.535156 -6.195312 2.265625 -5.75 C 2.003906 -5.300781 1.875 -4.644531 1.875 -3.78125 L 4.75 -3.78125 C 4.75 -4.726562 4.640625 -5.40625 4.421875 -5.8125 C 4.203125 -6.21875 3.867188 -6.421875 3.421875 -6.421875 Z M 3.421875 -6.421875 "/>
</g>
<g id="glyph-0-15">
</g>
<g id="glyph-0-16">
<path d="M 1.09375 2.5 L 1.09375 -10 L 4.359375 -10 L 4.359375 -9.65625 L 2.234375 -9.34375 L 2.234375 1.84375 L 4.359375 2.15625 L 4.359375 2.5 Z M 1.09375 2.5 "/>
</g>
<g id="glyph-0-17">
<path d="M 5.171875 -2.015625 C 5.171875 -1.359375 4.957031 -0.859375 4.53125 -0.515625 C 4.113281 -0.171875 3.492188 0 2.671875 0 C 2.335938 0 1.96875 -0.03125 1.5625 -0.09375 C 1.15625 -0.15625 0.835938 -0.234375 0.609375 -0.328125 L 0.609375 -1.984375 L 0.9375 -1.984375 L 1.296875 -1.046875 C 1.648438 -0.722656 2.113281 -0.5625 2.6875 -0.5625 C 3.613281 -0.5625 4.078125 -0.957031 4.078125 -1.75 C 4.078125 -2.320312 3.710938 -2.734375 2.984375 -2.984375 L 2.34375 -3.1875 C 1.863281 -3.34375 1.507812 -3.5 1.28125 -3.65625 C 1.0625 -3.820312 0.894531 -4.019531 0.78125 -4.25 C 0.664062 -4.488281 0.609375 -4.773438 0.609375 -5.109375 C 0.609375 -5.691406 0.804688 -6.148438 1.203125 -6.484375 C 1.609375 -6.828125 2.15625 -7 2.84375 -7 C 3.332031 -7 3.945312 -6.925781 4.6875 -6.78125 L 4.6875 -5.328125 L 4.359375 -5.328125 L 4.0625 -6.09375 C 3.800781 -6.3125 3.398438 -6.421875 2.859375 -6.421875 C 2.472656 -6.421875 2.175781 -6.328125 1.96875 -6.140625 C 1.769531 -5.953125 1.671875 -5.691406 1.671875 -5.359375 C 1.671875 -5.097656 1.757812 -4.875 1.9375 -4.6875 C 2.125 -4.507812 2.40625 -4.359375 2.78125 -4.234375 C 3.476562 -3.992188 3.9375 -3.816406 4.15625 -3.703125 C 4.375 -3.597656 4.554688 -3.46875 4.703125 -3.3125 C 4.847656 -3.15625 4.960938 -2.972656 5.046875 -2.765625 C 5.128906 -2.566406 5.171875 -2.316406 5.171875 -2.015625 Z M 5.171875 -2.015625 "/>
</g>
<g id="glyph-0-18">
<path d="M 0.53125 2.5 L 0.53125 2.15625 L 2.65625 1.84375 L 2.65625 -9.34375 L 0.53125 -9.65625 L 0.53125 -10 L 3.796875 -10 L 3.796875 2.5 Z M 0.53125 2.5 "/>
</g>
<g id="glyph-0-19">
<path d="M 6.78125 -3.515625 C 6.78125 -1.171875 5.726562 0 3.625 0 C 2.613281 0 1.847656 -0.300781 1.328125 -0.90625 C 0.816406 -1.507812 0.5625 -2.378906 0.5625 -3.515625 C 0.5625 -4.640625 0.816406 -5.5 1.328125 -6.09375 C 1.847656 -6.695312 2.632812 -7 3.6875 -7 C 4.707031 -7 5.476562 -6.707031 6 -6.125 C 6.519531 -5.539062 6.78125 -4.671875 6.78125 -3.515625 Z M 5.484375 -3.515625 C 5.484375 -4.535156 5.332031 -5.273438 5.03125 -5.734375 C 4.726562 -6.191406 4.257812 -6.421875 3.625 -6.421875 C 3 -6.421875 2.546875 -6.203125 2.265625 -5.765625 C 1.984375 -5.328125 1.84375 -4.578125 1.84375 -3.515625 C 1.84375 -2.441406 1.984375 -1.679688 2.265625 -1.234375 C 2.554688 -0.785156 3.007812 -0.5625 3.625 -0.5625 C 4.257812 -0.5625 4.726562 -0.796875 5.03125 -1.265625 C 5.332031 -1.734375 5.484375 -2.484375 5.484375 -3.515625 Z M 5.484375 -3.515625 "/>
</g>
<g id="glyph-0-20">
<path d="M 6.234375 -4.640625 C 6.234375 -3.847656 6 -3.242188 5.53125 -2.828125 C 5.070312 -2.421875 4.40625 -2.21875 3.53125 -2.21875 C 3.144531 -2.21875 2.785156 -2.253906 2.453125 -2.328125 L 2 -1.46875 C 2.007812 -1.394531 2.097656 -1.320312 2.265625 -1.25 C 2.441406 -1.1875 2.660156 -1.15625 2.921875 -1.15625 L 4.921875 -1.15625 C 5.640625 -1.15625 6.175781 -1 6.53125 -0.6875 C 6.882812 -0.375 7.0625 0.0507812 7.0625 0.59375 C 7.0625 1.070312 6.921875 1.492188 6.640625 1.859375 C 6.359375 2.222656 5.945312 2.503906 5.40625 2.703125 C 4.863281 2.898438 4.210938 3 3.453125 3 C 2.535156 3 1.832031 2.863281 1.34375 2.59375 C 0.863281 2.332031 0.625 1.953125 0.625 1.453125 C 0.625 1.203125 0.707031 0.957031 0.875 0.71875 C 1.050781 0.476562 1.367188 0.199219 1.828125 -0.109375 C 1.554688 -0.191406 1.328125 -0.34375 1.140625 -0.5625 C 0.953125 -0.789062 0.859375 -1.035156 0.859375 -1.296875 L 2 -2.5 C 1.238281 -2.851562 0.859375 -3.566406 0.859375 -4.640625 C 0.859375 -5.390625 1.09375 -5.96875 1.5625 -6.375 C 2.03125 -6.789062 2.707031 -7 3.59375 -7 C 3.769531 -7 3.992188 -6.976562 4.265625 -6.9375 C 4.546875 -6.90625 4.765625 -6.867188 4.921875 -6.828125 L 6.5 -7.625 L 6.75 -7.3125 L 5.75 -6.265625 C 6.070312 -5.898438 6.234375 -5.359375 6.234375 -4.640625 Z M 5.9375 0.828125 C 5.9375 0.566406 5.851562 0.363281 5.6875 0.21875 C 5.519531 0.0703125 5.265625 0 4.921875 0 L 2.328125 0 C 2.117188 0.164062 1.953125 0.375 1.828125 0.625 C 1.703125 0.875 1.640625 1.109375 1.640625 1.328125 C 1.640625 1.710938 1.785156 1.988281 2.078125 2.15625 C 2.378906 2.332031 2.835938 2.421875 3.453125 2.421875 C 4.242188 2.421875 4.851562 2.28125 5.28125 2 C 5.71875 1.71875 5.9375 1.328125 5.9375 0.828125 Z M 3.546875 -2.78125 C 4.066406 -2.78125 4.4375 -2.929688 4.65625 -3.234375 C 4.875 -3.546875 4.984375 -4.015625 4.984375 -4.640625 C 4.984375 -5.296875 4.867188 -5.757812 4.640625 -6.03125 C 4.421875 -6.3125 4.0625 -6.453125 3.5625 -6.453125 C 3.0625 -6.453125 2.691406 -6.3125 2.453125 -6.03125 C 2.222656 -5.75 2.109375 -5.285156 2.109375 -4.640625 C 2.109375 -3.984375 2.222656 -3.507812 2.453125 -3.21875 C 2.679688 -2.925781 3.046875 -2.78125 3.546875 -2.78125 Z M 3.546875 -2.78125 "/>
</g>
<g id="glyph-0-21">
<path d="M 3.328125 -7 C 4.066406 -7 4.609375 -6.847656 4.953125 -6.546875 C 5.296875 -6.242188 5.46875 -5.785156 5.46875 -5.171875 L 5.46875 -0.625 L 6.3125 -0.390625 L 6.3125 0 L 4.46875 0 L 4.328125 -0.828125 C 3.785156 -0.273438 3.09375 0 2.25 0 C 1.09375 0 0.515625 -0.625 0.515625 -1.875 C 0.515625 -2.289062 0.597656 -2.632812 0.765625 -2.90625 C 0.941406 -3.175781 1.222656 -3.382812 1.609375 -3.53125 C 1.992188 -3.675781 2.550781 -3.75 3.28125 -3.75 L 4.28125 -3.75 L 4.28125 -4.921875 C 4.28125 -5.453125 4.195312 -5.835938 4.03125 -6.078125 C 3.863281 -6.316406 3.601562 -6.4375 3.25 -6.4375 C 2.769531 -6.4375 2.332031 -6.3125 1.9375 -6.0625 L 1.6875 -5.140625 L 1.296875 -5.140625 L 1.296875 -6.734375 C 2.066406 -6.910156 2.742188 -7 3.328125 -7 Z M 4.28125 -3.25 L 3.34375 -3.25 C 2.707031 -3.25 2.273438 -3.148438 2.046875 -2.953125 C 1.816406 -2.753906 1.703125 -2.414062 1.703125 -1.9375 C 1.703125 -1.175781 2.046875 -0.796875 2.734375 -0.796875 C 3.054688 -0.796875 3.332031 -0.828125 3.5625 -0.890625 C 3.800781 -0.953125 4.039062 -1.035156 4.28125 -1.140625 Z M 4.28125 -3.25 "/>
</g>
<g id="glyph-0-22">
<path d="M -0.109375 1.875 L -0.109375 1.125 L 7.453125 1.125 L 7.453125 1.875 Z M -0.109375 1.875 "/>
</g>
<g id="glyph-0-23">
<path d="M 3.28125 -0.875 C 3.28125 -0.632812 3.195312 -0.425781 3.03125 -0.25 C 2.875 -0.0820312 2.671875 0 2.421875 0 C 2.171875 0 1.960938 -0.0820312 1.796875 -0.25 C 1.628906 -0.425781 1.546875 -0.632812 1.546875 -0.875 C 1.546875 -1.113281 1.628906 -1.316406 1.796875 -1.484375 C 1.972656 -1.660156 2.179688 -1.75 2.421875 -1.75 C 2.660156 -1.75 2.863281 -1.660156 3.03125 -1.484375 C 3.195312 -1.316406 3.28125 -1.113281 3.28125 -0.875 Z M 8.203125 -0.875 C 8.203125 -0.632812 8.117188 -0.425781 7.953125 -0.25 C 7.785156 -0.0820312 7.582031 0 7.34375 0 C 7.09375 0 6.882812 -0.0820312 6.71875 -0.25 C 6.550781 -0.425781 6.46875 -0.632812 6.46875 -0.875 C 6.46875 -1.113281 6.550781 -1.316406 6.71875 -1.484375 C 6.882812 -1.660156 7.09375 -1.75 7.34375 -1.75 C 7.582031 -1.75 7.785156 -1.660156 7.953125 -1.484375 C 8.117188 -1.316406 8.203125 -1.113281 8.203125 -0.875 Z M 13.125 -0.875 C 13.125 -0.632812 13.039062 -0.425781 12.875 -0.25 C 12.707031 -0.0820312 12.5 0 12.25 0 C 12 0 11.789062 -0.0820312 11.625 -0.25 C 11.46875 -0.425781 11.390625 -0.632812 11.390625 -0.875 C 11.390625 -1.113281 11.472656 -1.316406 11.640625 -1.484375 C 11.804688 -1.660156 12.007812 -1.75 12.25 -1.75 C 12.488281 -1.75 12.691406 -1.660156 12.859375 -1.484375 C 13.035156 -1.316406 13.125 -1.113281 13.125 -0.875 Z M 13.125 -0.875 "/>
</g>
<g id="glyph-1-0">
<path d="M -3.515625 -6.78125 C -1.171875 -6.78125 0 -5.726562 0 -3.625 C 0 -2.613281 -0.300781 -1.847656 -0.90625 -1.328125 C -1.507812 -0.816406 -2.378906 -0.5625 -3.515625 -0.5625 C -4.640625 -0.5625 -5.5 -0.816406 -6.09375 -1.328125 C -6.695312 -1.847656 -7 -2.632812 -7 -3.6875 C -7 -4.707031 -6.707031 -5.476562 -6.125 -6 C -5.539062 -6.519531 -4.671875 -6.78125 -3.515625 -6.78125 Z M -3.515625 -5.484375 C -4.535156 -5.484375 -5.273438 -5.332031 -5.734375 -5.03125 C -6.191406 -4.726562 -6.421875 -4.257812 -6.421875 -3.625 C -6.421875 -3 -6.203125 -2.546875 -5.765625 -2.265625 C -5.328125 -1.984375 -4.578125 -1.84375 -3.515625 -1.84375 C -2.441406 -1.84375 -1.679688 -1.984375 -1.234375 -2.265625 C -0.785156 -2.554688 -0.5625 -3.007812 -0.5625 -3.625 C -0.5625 -4.257812 -0.796875 -4.726562 -1.265625 -5.03125 C -1.734375 -5.332031 -2.484375 -5.484375 -3.515625 -5.484375 Z M -3.515625 -5.484375 "/>
</g>
<g id="glyph-1-1">
<path d="M -6.453125 -2.328125 C -6.660156 -2.691406 -6.800781 -3.070312 -6.875 -3.46875 C -6.957031 -3.875 -7 -4.226562 -7 -4.53125 C -7 -4.863281 -6.9375 -5.171875 -6.8125 -5.453125 C -6.6875 -5.734375 -6.492188 -5.941406 -6.234375 -6.078125 C -6.441406 -6.441406 -6.617188 -6.867188 -6.765625 -7.359375 C -6.921875 -7.859375 -7 -8.269531 -7 -8.59375 C -7 -9.738281 -6.332031 -10.3125 -5 -10.3125 L -0.515625 -10.3125 L -0.328125 -11.1875 L 0 -11.1875 L 0 -8.125 L -0.328125 -8.125 L -0.515625 -9.125 L -4.859375 -9.125 C -5.691406 -9.125 -6.109375 -8.742188 -6.109375 -7.984375 C -6.109375 -7.859375 -6.097656 -7.710938 -6.078125 -7.546875 C -6.066406 -7.378906 -6.046875 -7.210938 -6.015625 -7.046875 C -5.992188 -6.890625 -5.96875 -6.734375 -5.9375 -6.578125 C -5.90625 -6.429688 -5.878906 -6.304688 -5.859375 -6.203125 C -5.597656 -6.285156 -5.3125 -6.328125 -5 -6.328125 L -0.515625 -6.328125 L -0.328125 -7.34375 L 0 -7.34375 L 0 -4.140625 L -0.328125 -4.140625 L -0.515625 -5.140625 L -4.859375 -5.140625 C -5.265625 -5.140625 -5.570312 -5.035156 -5.78125 -4.828125 C -6 -4.628906 -6.109375 -4.328125 -6.109375 -3.921875 C -6.109375 -3.492188 -6.039062 -2.96875 -5.90625 -2.34375 L -0.515625 -2.34375 L -0.328125 -3.359375 L 0 -3.359375 L 0 -0.3125 L -0.328125 -0.3125 L -0.515625 -1.15625 L -6.359375 -1.15625 L -6.59375 -0.3125 L -7 -0.3125 L -7 -2.28125 Z M -6.453125 -2.328125 "/>
</g>
<g id="glyph-1-2">
<path d="M -3.21875 -1.859375 L -3.09375 -1.859375 C -2.507812 -1.859375 -2.054688 -1.929688 -1.734375 -2.078125 C -1.410156 -2.222656 -1.164062 -2.445312 -1 -2.75 C -0.832031 -3.050781 -0.75 -3.453125 -0.75 -3.953125 C -0.75 -4.203125 -0.765625 -4.503906 -0.796875 -4.859375 C -0.835938 -5.210938 -0.882812 -5.503906 -0.9375 -5.734375 L -0.5625 -5.734375 C -0.414062 -5.503906 -0.285156 -5.191406 -0.171875 -4.796875 C -0.0546875 -4.410156 0 -4.007812 0 -3.59375 C 0 -2.550781 -0.273438 -1.785156 -0.828125 -1.296875 C -1.390625 -0.816406 -2.289062 -0.578125 -3.53125 -0.578125 C -4.695312 -0.578125 -5.566406 -0.820312 -6.140625 -1.3125 C -6.710938 -1.800781 -7 -2.503906 -7 -3.421875 C -7 -5.140625 -5.945312 -6 -3.84375 -6 L -3.21875 -6 Z M -6.421875 -3.421875 C -6.421875 -2.921875 -6.195312 -2.535156 -5.75 -2.265625 C -5.300781 -2.003906 -4.644531 -1.875 -3.78125 -1.875 L -3.78125 -4.75 C -4.726562 -4.75 -5.40625 -4.640625 -5.8125 -4.421875 C -6.21875 -4.203125 -6.421875 -3.867188 -6.421875 -3.421875 Z M -6.421875 -3.421875 "/>
</g>
<g id="glyph-1-3">
<path d="M -4.640625 -6.234375 C -3.847656 -6.234375 -3.242188 -6 -2.828125 -5.53125 C -2.421875 -5.070312 -2.21875 -4.40625 -2.21875 -3.53125 C -2.21875 -3.144531 -2.253906 -2.785156 -2.328125 -2.453125 L -1.46875 -2 C -1.394531 -2.007812 -1.320312 -2.097656 -1.25 -2.265625 C -1.1875 -2.441406 -1.15625 -2.660156 -1.15625 -2.921875 L -1.15625 -4.921875 C -1.15625 -5.640625 -1 -6.175781 -0.6875 -6.53125 C -0.375 -6.882812 0.0507812 -7.0625 0.59375 -7.0625 C 1.070312 -7.0625 1.492188 -6.921875 1.859375 -6.640625 C 2.222656 -6.359375 2.503906 -5.945312 2.703125 -5.40625 C 2.898438 -4.863281 3 -4.210938 3 -3.453125 C 3 -2.535156 2.863281 -1.832031 2.59375 -1.34375 C 2.332031 -0.863281 1.953125 -0.625 1.453125 -0.625 C 1.203125 -0.625 0.957031 -0.707031 0.71875 -0.875 C 0.476562 -1.050781 0.199219 -1.367188 -0.109375 -1.828125 C -0.191406 -1.554688 -0.34375 -1.328125 -0.5625 -1.140625 C -0.789062 -0.953125 -1.035156 -0.859375 -1.296875 -0.859375 L -2.5 -2 C -2.851562 -1.238281 -3.566406 -0.859375 -4.640625 -0.859375 C -5.390625 -0.859375 -5.96875 -1.09375 -6.375 -1.5625 C -6.789062 -2.03125 -7 -2.707031 -7 -3.59375 C -7 -3.769531 -6.976562 -3.992188 -6.9375 -4.265625 C -6.90625 -4.546875 -6.867188 -4.765625 -6.828125 -4.921875 L -7.625 -6.5 L -7.3125 -6.75 L -6.265625 -5.75 C -5.898438 -6.070312 -5.359375 -6.234375 -4.640625 -6.234375 Z M 0.828125 -5.9375 C 0.566406 -5.9375 0.363281 -5.851562 0.21875 -5.6875 C 0.0703125 -5.519531 0 -5.265625 0 -4.921875 L 0 -2.328125 C 0.164062 -2.117188 0.375 -1.953125 0.625 -1.828125 C 0.875 -1.703125 1.109375 -1.640625 1.328125 -1.640625 C 1.710938 -1.640625 1.988281 -1.785156 2.15625 -2.078125 C 2.332031 -2.378906 2.421875 -2.835938 2.421875 -3.453125 C 2.421875 -4.242188 2.28125 -4.851562 2 -5.28125 C 1.71875 -5.71875 1.328125 -5.9375 0.828125 -5.9375 Z M -2.78125 -3.546875 C -2.78125 -4.066406 -2.929688 -4.4375 -3.234375 -4.65625 C -3.546875 -4.875 -4.015625 -4.984375 -4.640625 -4.984375 C -5.296875 -4.984375 -5.757812 -4.867188 -6.03125 -4.640625 C -6.3125 -4.421875 -6.453125 -4.0625 -6.453125 -3.5625 C -6.453125 -3.0625 -6.3125 -2.691406 -6.03125 -2.453125 C -5.75 -2.222656 -5.285156 -2.109375 -4.640625 -2.109375 C -3.984375 -2.109375 -3.507812 -2.222656 -3.21875 -2.453125 C -2.925781 -2.679688 -2.78125 -3.046875 -2.78125 -3.546875 Z M -2.78125 -3.546875 "/>
</g>
<g id="glyph-1-4">
<path d="M -7 -3.328125 C -7 -4.066406 -6.847656 -4.609375 -6.546875 -4.953125 C -6.242188 -5.296875 -5.785156 -5.46875 -5.171875 -5.46875 L -0.625 -5.46875 L -0.390625 -6.3125 L 0 -6.3125 L 0 -4.46875 L -0.828125 -4.328125 C -0.273438 -3.785156 0 -3.09375 0 -2.25 C 0 -1.09375 -0.625 -0.515625 -1.875 -0.515625 C -2.289062 -0.515625 -2.632812 -0.597656 -2.90625 -0.765625 C -3.175781 -0.941406 -3.382812 -1.222656 -3.53125 -1.609375 C -3.675781 -1.992188 -3.75 -2.550781 -3.75 -3.28125 L -3.75 -4.28125 L -4.921875 -4.28125 C -5.453125 -4.28125 -5.835938 -4.195312 -6.078125 -4.03125 C -6.316406 -3.863281 -6.4375 -3.601562 -6.4375 -3.25 C -6.4375 -2.769531 -6.3125 -2.332031 -6.0625 -1.9375 L -5.140625 -1.6875 L -5.140625 -1.296875 L -6.734375 -1.296875 C -6.910156 -2.066406 -7 -2.742188 -7 -3.328125 Z M -3.25 -4.28125 L -3.25 -3.34375 C -3.25 -2.707031 -3.148438 -2.273438 -2.953125 -2.046875 C -2.753906 -1.816406 -2.414062 -1.703125 -1.9375 -1.703125 C -1.175781 -1.703125 -0.796875 -2.046875 -0.796875 -2.734375 C -0.796875 -3.054688 -0.828125 -3.332031 -0.890625 -3.5625 C -0.953125 -3.800781 -1.035156 -4.039062 -1.140625 -4.28125 Z M -3.25 -4.28125 "/>
</g>
<g id="glyph-1-5">
</g>
<g id="glyph-1-6">
<path d="M 2.5 -1.09375 L -10 -1.09375 L -10 -4.359375 L -9.65625 -4.359375 L -9.34375 -2.234375 L 1.84375 -2.234375 L 2.15625 -4.359375 L 2.5 -4.359375 Z M 2.5 -1.09375 "/>
</g>
<g id="glyph-1-7">
<path d="M -6.34375 -1.09375 L -6.578125 -0.328125 L -7 -0.328125 L -7 -2.21875 L -6.484375 -2.234375 C -6.640625 -2.429688 -6.765625 -2.695312 -6.859375 -3.03125 C -6.953125 -3.363281 -7 -3.707031 -7 -4.0625 C -7 -4.914062 -6.703125 -5.578125 -6.109375 -6.046875 C -5.515625 -6.523438 -4.664062 -6.765625 -3.5625 -6.765625 C -2.425781 -6.765625 -1.546875 -6.503906 -0.921875 -5.984375 C -0.304688 -5.472656 0 -4.734375 0 -3.765625 C 0 -3.222656 -0.0507812 -2.710938 -0.15625 -2.234375 C 0.195312 -2.253906 0.46875 -2.265625 0.65625 -2.265625 L 2.484375 -2.265625 L 2.65625 -3.453125 L 3 -3.453125 L 3 -0.234375 L 2.65625 -0.234375 L 2.484375 -1.09375 Z M -3.5625 -5.46875 C -4.46875 -5.46875 -5.140625 -5.316406 -5.578125 -5.015625 C -6.023438 -4.722656 -6.25 -4.273438 -6.25 -3.671875 C -6.25 -3.109375 -6.171875 -2.640625 -6.015625 -2.265625 L -0.6875 -2.265625 C -0.601562 -2.691406 -0.5625 -3.160156 -0.5625 -3.671875 C -0.5625 -4.867188 -1.5625 -5.46875 -3.5625 -5.46875 Z M -3.5625 -5.46875 "/>
</g>
<g id="glyph-1-8">
<path d="M -0.875 -2.703125 C -0.632812 -2.703125 -0.425781 -2.617188 -0.25 -2.453125 C -0.0820312 -2.285156 0 -2.078125 0 -1.828125 C 0 -1.585938 -0.0820312 -1.382812 -0.25 -1.21875 C -0.425781 -1.050781 -0.632812 -0.96875 -0.875 -0.96875 C -1.113281 -0.96875 -1.316406 -1.050781 -1.484375 -1.21875 C -1.660156 -1.382812 -1.75 -1.585938 -1.75 -1.828125 C -1.75 -2.078125 -1.660156 -2.285156 -1.484375 -2.453125 C -1.316406 -2.617188 -1.113281 -2.703125 -0.875 -2.703125 Z M -0.875 -2.703125 "/>
</g>
<g id="glyph-1-9">
<path d="M -2.09375 -2.25 C -1.257812 -2.25 -0.84375 -2.628906 -0.84375 -3.390625 C -0.84375 -3.984375 -0.914062 -4.535156 -1.0625 -5.046875 L -6.484375 -5.046875 L -6.671875 -4.03125 L -7 -4.03125 L -7 -6.234375 L -0.609375 -6.234375 L -0.390625 -7.078125 L 0 -7.078125 L 0 -5.125 L -0.671875 -5.0625 C -0.484375 -4.726562 -0.320312 -4.335938 -0.1875 -3.890625 C -0.0625 -3.441406 0 -3.066406 0 -2.765625 C 0 -1.617188 -0.671875 -1.046875 -2.015625 -1.046875 L -6.484375 -1.046875 L -6.671875 -0.1875 L -7 -0.1875 L -7 -2.25 Z M -2.09375 -2.25 "/>
</g>
<g id="glyph-1-10">
<path d="M 2.5 -0.53125 L 2.15625 -0.53125 L 1.84375 -2.65625 L -9.34375 -2.65625 L -9.65625 -0.53125 L -10 -0.53125 L -10 -3.796875 L 2.5 -3.796875 Z M 2.5 -0.53125 "/>
</g>
</g>
</defs>
<path fill="none" stroke-width="1" stroke-linecap="butt" stroke-linejoin="miter" stroke="rgb(50.196081%, 50.196081%, 50.196081%)" stroke-opacity="1" stroke-miterlimit="10" d="M 65 20 L 1180 20 L 1180 650 L 65 650 Z M 65 20 "/>
<path fill="none" stroke-width="0.9" stroke-linecap="butt" stroke-linejoin="miter" stroke="rgb(50.196081%, 50.196081%, 50.196081%)" stroke-opacity="1" stroke-dasharray="6 3" stroke-miterlimit="10" d="M 65 581.09375 L 1180 581.09375 "/>
<g fill="rgb(100%, 100%, 100%)" fill-opacity="1">
<use xlink:href="#glyph-0-0" x="-2" y="585.164062"/>
<use xlink:href="#glyph-0-1" x="5.333984" y="585.164062"/>
<use xlink:href="#glyph-0-2" x="9.000977" y="585.164062"/>
<use xlink:href="#glyph-0-2" x="16.334961" y="585.164062"/>
<use xlink:href="#glyph-0-3" x="23.668945" y="585.164062"/>
<use xlink:href="#glyph-0-0" x="31.00293" y="585.164062"/>
<use xlink:href="#glyph-0-2" x="38.336914" y="585.164062"/>
<use xlink:href="#glyph-0-4" x="45.670898" y="585.164062"/>
</g>
<path fill="none" stroke-width="2" stroke-linecap="butt" stroke-linejoin="miter" stroke="rgb(100%, 100%, 100%)" stroke-opacity="1" stroke-miterlimit="10" d="M 58 581.09375 L 72 581.09375 "/>
<path fill="none" stroke-width="0.9" stroke-linecap="butt" stroke-linejoin="miter" stroke="rgb(50.196081%, 50.196081%, 50.196081%)" stroke-opacity="1" stroke-dasharray="6 3" stroke-miterlimit="10" d="M 65 650 L 65 20 "/>
<g fill="rgb(100%, 100%, 100%)" fill-opacity="1">
<use xlink:href="#glyph-0-0" x="61.5" y="677.070312"/>
</g>
<path fill="none" stroke-width="2" stroke-linecap="butt" stroke-linejoin="miter" stroke="rgb(100%, 100%, 100%)" stroke-opacity="1" stroke-miterlimit="10" d="M 65 643 L 65 657 "/>
<path fill="none" stroke-width="0.9" stroke-linecap="butt" stroke-linejoin="miter" stroke="rgb(50.196081%, 50.196081%, 50.196081%)" stroke-opacity="1" stroke-dasharray="6 3" stroke-miterlimit="10" d="M 65 458.046875 L 1180 458.046875 "/>
<g fill="rgb(100%, 100%, 100%)" fill-opacity="1">
<use xlink:href="#glyph-0-0" x="-2" y="462.117188"/>
<use xlink:href="#glyph-0-1" x="5.333984" y="462.117188"/>
<use xlink:href="#glyph-0-2" x="9.000977" y="462.117188"/>
<use xlink:href="#glyph-0-2" x="16.334961" y="462.117188"/>
<use xlink:href="#glyph-0-5" x="23.668945" y="462.117188"/>
<use xlink:href="#glyph-0-0" x="31.00293" y="462.117188"/>
<use xlink:href="#glyph-0-4" x="38.336914" y="462.117188"/>
<use xlink:href="#glyph-0-6" x="45.670898" y="462.117188"/>
</g>
<path fill="none" stroke-width="2" stroke-linecap="butt" stroke-linejoin="miter" stroke="rgb(100%, 100%, 100%)" stroke-opacity="1" stroke-miterlimit="10" d="M 58 458.046875 L 72 458.046875 "/>
<path fill="none" stroke-width="0.9" stroke-linecap="butt" stroke-linejoin="miter" stroke="rgb(50.196081%, 50.196081%, 50.196081%)" stroke-opacity="1" stroke-dasharray="6 3" stroke-miterlimit="10" d="M 213.667969 650 L 213.667969 20 "/>
<g fill="rgb(100%, 100%, 100%)" fill-opacity="1">
<use xlink:href="#glyph-0-4" x="210.167969" y="677.070312"/>
</g>
<path fill="none" stroke-width="2" stroke-linecap="butt" stroke-linejoin="miter" stroke="rgb(100%, 100%, 100%)" stroke-opacity="1" stroke-miterlimit="10" d="M 213.667969 643 L 213.667969 657 "/>
<path fill="none" stroke-width="0.9" stroke-linecap="butt" stroke-linejoin="miter" stroke="rgb(50.196081%, 50.196081%, 50.196081%)" stroke-opacity="1" stroke-dasharray="6 3" stroke-miterlimit="10" d="M 65 335 L 1180 335 "/>
<g fill="rgb(100%, 100%, 100%)" fill-opacity="1">
<use xlink:href="#glyph-0-7" x="44" y="339.070312"/>
</g>
<path fill="none" stroke-width="2" stroke-linecap="butt" stroke-linejoin="miter" stroke="rgb(100%, 100%, 100%)" stroke-opacity="1" stroke-miterlimit="10" d="M 58 335 L 72 335 "/>
<path fill="none" stroke-width="0.9" stroke-linecap="butt" stroke-linejoin="miter" stroke="rgb(50.196081%, 50.196081%, 50.196081%)" stroke-opacity="1" stroke-dasharray="6 3" stroke-miterlimit="10" d="M 362.332031 650 L 362.332031 20 "/>
<g fill="rgb(100%, 100%, 100%)" fill-opacity="1">
<use xlink:href="#glyph-0-5" x="358.832031" y="677.070312"/>
</g>
<path fill="none" stroke-width="2" stroke-linecap="butt" stroke-linejoin="miter" stroke="rgb(100%, 100%, 100%)" stroke-opacity="1" stroke-miterlimit="10" d="M 362.332031 643 L 362.332031 657 "/>
<path fill="none" stroke-width="0.9" stroke-linecap="butt" stroke-linejoin="miter" stroke="rgb(50.196081%, 50.196081%, 50.196081%)" stroke-opacity="1" stroke-dasharray="6 3" stroke-miterlimit="10" d="M 65 211.953125 L 1180 211.953125 "/>
<g fill="rgb(100%, 100%, 100%)" fill-opacity="1">
<use xlink:href="#glyph-0-7" x="5" y="216.023438"/>
<use xlink:href="#glyph-0-1" x="12.333984" y="216.023438"/>
<use xlink:href="#glyph-0-0" x="16.000977" y="216.023438"/>
<use xlink:href="#glyph-0-0" x="23.334961" y="216.023438"/>
<use xlink:href="#glyph-0-7" x="30.668945" y="216.023438"/>
<use xlink:href="#glyph-0-2" x="38.00293" y="216.023438"/>
<use xlink:href="#glyph-0-8" x="45.336914" y="216.023438"/>
</g>
<path fill="none" stroke-width="2" stroke-linecap="butt" stroke-linejoin="miter" stroke="rgb(100%, 100%, 100%)" stroke-opacity="1" stroke-miterlimit="10" d="M 58 211.953125 L 72 211.953125 "/>
<path fill="none" stroke-width="0.9" stroke-linecap="butt" stroke-linejoin="miter" stroke="rgb(50.196081%, 50.196081%, 50.196081%)" stroke-opacity="1" stroke-dasharray="6 3" stroke-miterlimit="10" d="M 511 650 L 511 20 "/>
<g fill="rgb(100%, 100%, 100%)" fill-opacity="1">
<use xlink:href="#glyph-0-7" x="504" y="677.070312"/>
<use xlink:href="#glyph-0-9" x="511.333984" y="677.070312"/>
</g>
<path fill="none" stroke-width="2" stroke-linecap="butt" stroke-linejoin="miter" stroke="rgb(100%, 100%, 100%)" stroke-opacity="1" stroke-miterlimit="10" d="M 511 643 L 511 657 "/>
<path fill="none" stroke-width="0.9" stroke-linecap="butt" stroke-linejoin="miter" stroke="rgb(50.196081%, 50.196081%, 50.196081%)" stroke-opacity="1" stroke-dasharray="6 3" stroke-miterlimit="10" d="M 65 88.90625 L 1180 88.90625 "/>
<g fill="rgb(100%, 100%, 100%)" fill-opacity="1">
<use xlink:href="#glyph-0-7" x="5" y="92.976562"/>
<use xlink:href="#glyph-0-1" x="12.333984" y="92.976562"/>
<use xlink:href="#glyph-0-0" x="16.000977" y="92.976562"/>
<use xlink:href="#glyph-0-0" x="23.334961" y="92.976562"/>
<use xlink:href="#glyph-0-10" x="30.668945" y="92.976562"/>
<use xlink:href="#glyph-0-2" x="38.00293" y="92.976562"/>
<use xlink:href="#glyph-0-7" x="45.336914" y="92.976562"/>
</g>
<path fill="none" stroke-width="2" stroke-linecap="butt" stroke-linejoin="miter" stroke="rgb(100%, 100%, 100%)" stroke-opacity="1" stroke-miterlimit="10" d="M 58 88.90625 L 72 88.90625 "/>
<path fill="none" stroke-width="0.9" stroke-linecap="butt" stroke-linejoin="miter" stroke="rgb(50.196081%, 50.196081%, 50.196081%)" stroke-opacity="1" stroke-dasharray="6 3" stroke-miterlimit="10" d="M 659.667969 650 L 659.667969 20 "/>
<g fill="rgb(100%, 100%, 100%)" fill-opacity="1">
<use xlink:href="#glyph-0-7" x="652.667969" y="677.070312"/>
<use xlink:href="#glyph-0-3" x="660.001953" y="677.070312"/>
</g>
<path fill="none" stroke-width="2" stroke-linecap="butt" stroke-linejoin="miter" stroke="rgb(100%, 100%, 100%)" stroke-opacity="1" stroke-miterlimit="10" d="M 659.667969 643 L 659.667969 657 "/>
<path fill="none" stroke-width="0.9" stroke-linecap="butt" stroke-linejoin="miter" stroke="rgb(50.196081%, 50.196081%, 50.196081%)" stroke-opacity="1" stroke-dasharray="6 3" stroke-miterlimit="10" d="M 808.332031 650 L 808.332031 20 "/>
<g fill="rgb(100%, 100%, 100%)" fill-opacity="1">
<use xlink:href="#glyph-0-9" x="801.332031" y="677.070312"/>
<use xlink:href="#glyph-0-0" x="808.666016" y="677.070312"/>
</g>
<path fill="none" stroke-width="2" stroke-linecap="butt" stroke-linejoin="miter" stroke="rgb(100%, 100%, 100%)" stroke-opacity="1" stroke-miterlimit="10" d="M 808.332031 643 L 808.332031 657 "/>
<path fill="none" stroke-width="0.9" stroke-linecap="butt" stroke-linejoin="miter" stroke="rgb(50.196081%, 50.196081%, 50.196081%)" stroke-opacity="1" stroke-dasharray="6 3" stroke-miterlimit="10" d="M 957 650 L 957 20 "/>
<g fill="rgb(100%, 100%, 100%)" fill-opacity="1">
<use xlink:href="#glyph-0-9" x="950" y="677.070312"/>
<use xlink:href="#glyph-0-4" x="957.333984" y="677.070312"/>
</g>
<path fill="none" stroke-width="2" stroke-linecap="butt" stroke-linejoin="miter" stroke="rgb(100%, 100%, 100%)" stroke-opacity="1" stroke-miterlimit="10" d="M 957 643 L 957 657 "/>
<path fill="none" stroke-width="0.9" stroke-linecap="butt" stroke-linejoin="miter" stroke="rgb(50.196081%, 50.196081%, 50.196081%)" stroke-opacity="1" stroke-dasharray="6 3" stroke-miterlimit="10" d="M 1105.667969 650 L 1105.667969 20 "/>
<g fill="rgb(100%, 100%, 100%)" fill-opacity="1">
<use xlink:href="#glyph-0-9" x="1098.667969" y="677.070312"/>
<use xlink:href="#glyph-0-5" x="1106.001953" y="677.070312"/>
</g>
<path fill="none" stroke-width="2" stroke-linecap="butt" stroke-linejoin="miter" stroke="rgb(100%, 100%, 100%)" stroke-opacity="1" stroke-miterlimit="10" d="M 1105.667969 643 L 1105.667969 657 "/>
<g fill="rgb(100%, 100%, 100%)" fill-opacity="1">
<use xlink:href="#glyph-0-11" x="597.709961" y="706.070312"/>
<use xlink:href="#glyph-0-12" x="606.15332" y="706.070312"/>
<use xlink:href="#glyph-0-13" x="610.228516" y="706.070312"/>
<use xlink:href="#glyph-0-14" x="621.636719" y="706.070312"/>
<use xlink:href="#glyph-0-15" x="628.146484" y="706.070312"/>
<use xlink:href="#glyph-0-16" x="631.813477" y="706.070312"/>
<use xlink:href="#glyph-0-17" x="636.697266" y="706.070312"/>
<use xlink:href="#glyph-0-18" x="642.405273" y="706.070312"/>
</g>
<g fill="rgb(100%, 100%, 100%)" fill-opacity="1">
<use xlink:href="#glyph-1-0" x="19.070313" y="372.266602"/>
<use xlink:href="#glyph-1-1" x="19.070313" y="364.932617"/>
<use xlink:href="#glyph-1-2" x="19.070313" y="353.524414"/>
<use xlink:href="#glyph-1-3" x="19.070313" y="347.014648"/>
<use xlink:href="#glyph-1-4" x="19.070313" y="339.680664"/>
<use xlink:href="#glyph-1-5" x="19.070313" y="333.170898"/>
<use xlink:href="#glyph-1-6" x="19.070313" y="329.503906"/>
<use xlink:href="#glyph-1-7" x="19.070313" y="324.620117"/>
<use xlink:href="#glyph-1-8" x="19.070313" y="317.286133"/>
<use xlink:href="#glyph-1-9" x="19.070313" y="313.619141"/>
<use xlink:href="#glyph-1-8" x="19.070313" y="306.285156"/>
<use xlink:href="#glyph-1-10" x="19.070313" y="302.618164"/>
</g>
<path fill="none" stroke-width="1.2" stroke-linecap="butt" stroke-linejoin="miter" stroke="rgb(100%, 100%, 100%)" stroke-opacity="1" stroke-miterlimit="10" d="M 65 650 L 65 20 "/>
<path fill="none" stroke-width="2" stroke-linecap="butt" stroke-linejoin="miter" stroke="rgb(100%, 0%, 0%)" stroke-opacity="1" stroke-miterlimit="10" d="M 65 335 L 1180 335 "/>
<path fill="none" stroke-width="2" stroke-linecap="butt" stroke-linejoin="miter" stroke="rgb(0%, 50.196081%, 0%)" stroke-opacity="1" stroke-miterlimit="10" d="M 65 335 L 1180 335 "/>
<path fill="none" stroke-width="2" stroke-linecap="butt" stroke-linejoin="miter" stroke="rgb(0%, 100%, 100%)" stroke-opacity="1" stroke-miterlimit="10" d="M 65 335 L 1180 335 "/>
<path fill="none" stroke-width="2" stroke-linecap="butt" stroke-linejoin="miter" stroke="rgb(100%, 0%, 100%)" stroke-opacity="1" stroke-miterlimit="10" d="M 65 335 L 1180 335 "/>
<path fill="none" stroke-width="2" stroke-linecap="butt" stroke-linejoin="miter" stroke="rgb(67.843139%, 84.705883%, 90.196079%)" stroke-opacity="1" stroke-miterlimit="10" d="M 65 335 L 1180 335 "/>
<path fill="none" stroke-width="2" stroke-linecap="butt" stroke-linejoin="miter" stroke="rgb(100%, 100%, 100%)" stroke-opacity="1" stroke-miterlimit="10" d="M 65 335 L 1180 335 "/>
<path fill="none" stroke-width="2" stroke-linecap="butt" stroke-linejoin="miter" stroke="rgb(0%, 39.215687%, 0%)" stroke-opacity="1" stroke-miterlimit="10" d="M 65 335 L 1180 335 "/>
<path fill="none" stroke-width="2" stroke-linecap="butt" stroke-linejoin="miter" stroke="rgb(0%, 0%, 54.509807%)" stroke-opacity="1" stroke-miterlimit="10" d="M 65 335 L 1180 335 "/>
<path fill="none" stroke-width="2" stroke-linecap="butt" stroke-linejoin="miter" stroke="rgb(100%, 0%, 0%)" stroke-opacity="1" stroke-miterlimit="10" d="M 65 335 L 1180 335 "/>
<path fill="none" stroke-width="2" stroke-linecap="butt" stroke-linejoin="miter" stroke="rgb(0%, 50.196081%, 0%)" stroke-opacity="1" stroke-miterlimit="10" d="M 65 335 L 1180 335 "/>
<path fill="none" stroke-width="2" stroke-linecap="butt" stroke-linejoin="miter" stroke="rgb(0%, 100%, 100%)" stroke-opacity="1" stroke-miterlimit="10" d="M 65 335 L 1180 335 "/>
<path fill="none" stroke-width="2" stroke-linecap="butt" stroke-linejoin="miter" stroke="rgb(100%, 0%, 100%)" stroke-opacity="1" stroke-miterlimit="10" d="M 65 335 L 1180 335 "/>
<path fill="none" stroke-width="2" stroke-linecap="butt" stroke-linejoin="miter" stroke="rgb(67.843139%, 84.705883%, 90.196079%)" stroke-opacity="1" stroke-miterlimit="10" d="M 65 335 L 1180 335 "/>
<path fill="none" stroke-width="2" stroke-linecap="butt" stroke-linejoin="miter" stroke="rgb(100%, 100%, 100%)" stroke-opacity="1" stroke-miterlimit="10" d="M 65 335 L 1180 335 "/>
<path fill="none" stroke-width="2" stroke-linecap="butt" stroke-linejoin="miter" stroke="rgb(0%, 39.215687%, 0%)" stroke-opacity="1" stroke-miterlimit="10" d="M 65 335 L 1180 335 "/>
<path fill="none" stroke-width="2" stroke-linecap="butt" stroke-linejoin="miter" stroke="rgb(0%, 0%, 54.509807%)" stroke-opacity="1" stroke-miterlimit="10" d="M 65 335 L 1180 335 "/>
<path fill="none" stroke-width="2" stroke-linecap="butt" stroke-linejoin="miter" stroke="rgb(100%, 0%, 0%)" stroke-opacity="1" stroke-miterlimit="10" d="M 65 335 L 1180 335 "/>
<path fill="none" stroke-width="2" stroke-linecap="butt" stroke-linejoin="miter" stroke="rgb(0%, 50.196081%, 0%)" stroke-opacity="1" stroke-miterlimit="10" d="M 65 335 L 1180 335 "/>
<path fill-rule="nonzero" fill="rgb(0%, 0%, 0%)" fill-opacity="1" d="M 1057 32 L 1173 32 L 1173 506 L 1057 506 Z M 1057 32 "/>
<g fill="rgb(100%, 100%, 100%)" fill-opacity="1">
<use xlink:href="#glyph-0-19" x="1110" y="52.570312"/>
<use xlink:href="#glyph-0-13" x="1117.333984" y="52.570312"/>
<use xlink:href="#glyph-0-14" x="1128.742188" y="52.570312"/>
<use xlink:href="#glyph-0-20" x="1135.251953" y="52.570312"/>
<use xlink:href="#glyph-0-21" x="1142.585938" y="52.570312"/>
<use xlink:href="#glyph-0-22" x="1149.095703" y="52.570312"/>
<use xlink:href="#glyph-0-7" x="1156.429688" y="52.570312"/>
</g>
<path fill="none" stroke-width="2" stroke-linecap="butt" stroke-linejoin="miter" stroke="rgb(100%, 0%, 0%)" stroke-opacity="1" stroke-miterlimit="10" d="M 1060 48 L 1100 48 "/>
<g fill="rgb(100%, 100%, 100%)" fill-opacity="1">
<use xlink:href="#glyph-0-19" x="1110" y="78.570312"/>
<use xlink:href="#glyph-0-13" x="1117.333984" y="78.570312"/>
<use xlink:href="#glyph-0-14" x="1128.742188" y="78.570312"/>
<use xlink:href="#glyph-0-20" x="1135.251953" y="78.570312"/>
<use xlink:href="#glyph-0-21" x="1142.585938" y="78.570312"/>
<use xlink:href="#glyph-0-22" x="1149.095703" y="78.570312"/>
<use xlink:href="#glyph-0-10" x="1156.429688" y="78.570312"/>
</g>
<path fill="none" stroke-width="2" stroke-linecap="butt" stroke-linejoin="miter" stroke="rgb(0%, 50.196081%, 0%)" stroke-opacity="1" stroke-miterlimit="10" d="M 1060 74 L 1100 74 "/>
<g fill="rgb(100%, 100%, 100%)" fill-opacity="1">
<use xlink:href="#glyph-0-19" x="1110" y="104.570312"/>
<use xlink:href="#glyph-0-13" x="1117.333984" y="104.570312"/>
<use xlink:href="#glyph-0-14" x="1128.742188" y="104.570312"/>
<use xlink:href="#glyph-0-20" x="1135.251953" y="104.570312"/>
<use xlink:href="#glyph-0-21" x="1142.585938" y="104.570312"/>
<use xlink:href="#glyph-0-22" x="1149.095703" y="104.570312"/>
<use xlink:href="#glyph-0-4" x="1156.429688" y="104.570312"/>
</g>
<path fill="none" stroke-width="2" stroke-linecap="butt" stroke-linejoin="miter" stroke="rgb(0%, 100%, 100%)" stroke-opacity="1" stroke-miterlimit="10" d="M 1060 100 L 1100 100 "/>
<g fill="rgb(100%, 100%, 100%)" fill-opacity="1">
<use xlink:href="#glyph-0-19" x="1110" y="130.570312"/>
<use xlink:href="#glyph-0-13" x="1117.333984" y="130.570312"/>
<use xlink:href="#glyph-0-14" x="1128.742188" y="130.570312"/>
<use xlink:href="#glyph-0-20" x="1135.251953" y="130.570312"/>
<use xlink:href="#glyph-0-21" x="1142.585938" y="130.570312"/>
<use xlink:href="#glyph-0-22" x="1149.095703" y="130.570312"/>
<use xlink:href="#glyph-0-8" x="1156.429688" y="130.570312"/>
</g>
<path fill="none" stroke-width="2" stroke-linecap="butt" stroke-linejoin="miter" stroke="rgb(100%, 0%, 100%)" stroke-opacity="1" stroke-miterlimit="10" d="M 1060 126 L 1100 126 "/>
<g fill="rgb(100%, 100%, 100%)" fill-opacity="1">
<use xlink:href="#glyph-0-19" x="1110" y="156.570312"/>
<use xlink:href="#glyph-0-13" x="1117.333984" y="156.570312"/>
<use xlink:href="#glyph-0-14" x="1128.742188" y="156.570312"/>
<use xlink:href="#glyph-0-20" x="1135.251953" y="156.570312"/>
<use xlink:href="#glyph-0-21" x="1142.585938" y="156.570312"/>
<use xlink:href="#glyph-0-22" x="1149.095703" y="156.570312"/>
<use xlink:href="#glyph-0-3" x="1156.429688" y="156.570312"/>
</g>
<path fill="none" stroke-width="2" stroke-linecap="butt" stroke-linejoin="miter" stroke="rgb(67.843139%, 84.705883%, 90.196079%)" stroke-opacity="1" stroke-miterlimit="10" d="M 1060 152 L 1100 152 "/>
<g fill="rgb(100%, 100%, 100%)" fill-opacity="1">
<use xlink:href="#glyph-0-19" x="1110" y="182.570312"/>
<use xlink:href="#glyph-0-13" x="1117.333984" y="182.570312"/>
<use xlink:href="#glyph-0-14" x="1128.742188" y="182.570312"/>
<use xlink:href="#glyph-0-20" x="1135.251953" y="182.570312"/>
<use xlink:href="#glyph-0-21" x="1142.585938" y="182.570312"/>
<use xlink:href="#glyph-0-22" x="1149.095703" y="182.570312"/>
<use xlink:href="#glyph-0-6" x="1156.429688" y="182.570312"/>
</g>
<path fill="none" stroke-width="2" stroke-linecap="butt" stroke-linejoin="miter" stroke="rgb(100%, 100%, 100%)" stroke-opacity="1" stroke-miterlimit="10" d="M 1060 178 L 1100 178 "/>
<g fill="rgb(100%, 100%, 100%)" fill-opacity="1">
<use xlink:href="#glyph-0-19" x="1110" y="208.570312"/>
<use xlink:href="#glyph-0-13" x="1117.333984" y="208.570312"/>
<use xlink:href="#glyph-0-14" x="1128.742188" y="208.570312"/>
<use xlink:href="#glyph-0-20" x="1135.251953" y="208.570312"/>
<use xlink:href="#glyph-0-21" x="1142.585938" y="208.570312"/>
<use xlink:href="#glyph-0-22" x="1149.095703" y="208.570312"/>
<use xlink:href="#glyph-0-5" x="1156.429688" y="208.570312"/>
</g>
<path fill="none" stroke-width="2" stroke-linecap="butt" stroke-linejoin="miter" stroke="rgb(0%, 39.215687%, 0%)" stroke-opacity="1" stroke-miterlimit="10" d="M 1060 204 L 1100 204 "/>
<g fill="rgb(100%, 100%, 100%)" fill-opacity="1">
<use xlink:href="#glyph-0-19" x="1110" y="234.570312"/>
<use xlink:href="#glyph-0-13" x="1117.333984" y="234.570312"/>
<use xlink:href="#glyph-0-14" x="1128.742188" y="234.570312"/>
<use xlink:href="#glyph-0-20" x="1135.251953" y="234.570312"/>
<use xlink:href="#glyph-0-21" x="1142.585938" y="234.570312"/>
<use xlink:href="#glyph-0-22" x="1149.095703" y="234.570312"/>
<use xlink:href="#glyph-0-2" x="1156.429688" y="234.570312"/>
</g>
<path fill="none" stroke-width="2" stroke-linecap="butt" stroke-linejoin="miter" stroke="rgb(0%, 0%, 54.509807%)" stroke-opacity="1" stroke-miterlimit="10" d="M 1060 230 L 1100 230 "/>
<g fill="rgb(100%, 100%, 100%)" fill-opacity="1">
<use xlink:href="#glyph-0-19" x="1110" y="260.570312"/>
<use xlink:href="#glyph-0-13" x="1117.333984" y="260.570312"/>
<use xlink:href="#glyph-0-14" x="1128.742188" y="260.570312"/>
<use xlink:href="#glyph-0-20" x="1135.251953" y="260.570312"/>
<use xlink:href="#glyph-0-21" x="1142.585938" y="260.570312"/>
</g>
<g fill="rgb(100%, 100%, 100%)" fill-opacity="1">
<use xlink:href="#glyph-0-23" x="1149.095703" y="260.570312"/>
</g>
<path fill="none" stroke-width="2" stroke-linecap="butt" stroke-linejoin="miter" stroke="rgb(100%, 0%, 0%)" stroke-opacity="1" stroke-miterlimit="10" d="M 1060 256 L 1100 256 "/>
<g fill="rgb(100%, 100%, 100%)" fill-opacity="1">
<use xlink:href="#glyph-0-19" x="1110" y="286.570312"/>
<use xlink:href="#glyph-0-13" x="1117.333984" y="286.570312"/>
<use xlink:href="#glyph-0-14" x="1128.742188" y="286.570312"/>
<use xlink:href="#glyph-0-20" x="1135.251953" y="286.570312"/>
<use xlink:href="#glyph-0-21" x="1142.585938" y="286.570312"/>
</g>
<g fill="rgb(100%, 100%, 100%)" fill-opacity="1">
<use xlink:href="#glyph-0-23" x="1149.095703" y="286.570312"/>
</g>
<path fill="none" stroke-width="2" stroke-linecap="butt" stroke-linejoin="miter" stroke="rgb(0%, 50.196081%, 0%)" stroke-opacity="1" stroke-miterlimit="10" d="M 1060 282 L 1100 282 "/>
<g fill="rgb(100%, 100%, 100%)" fill-opacity="1">
<use xlink:href="#glyph-0-19" x="1110" y="312.570312"/>
<use xlink:href="#glyph-0-13" x="1117.333984" y="312.570312"/>
<use xlink:href="#glyph-0-14" x="1128.742188" y="312.570312"/>
<use xlink:href="#glyph-0-20" x="1135.251953" y="312.570312"/>
<use xlink:href="#glyph-0-21" x="1142.585938" y="312.570312"/>
</g>
<g fill="rgb(100%, 100%, 100%)" fill-opacity="1">
<use xlink:href="#glyph-0-23" x="1149.095703" y="312.570312"/>
</g>
<path fill="none" stroke-width="2" stroke-linecap="butt" stroke-linejoin="miter" stroke="rgb(0%, 100%, 100%)" stroke-opacity="1" stroke-miterlimit="10" d="M 1060 308 L 1100 308 "/>
<g fill="rgb(100%, 100%, 100%)" fill-opacity="1">
<use xlink:href="#glyph-0-19" x="1110" y="338.570312"/>
<use xlink:href="#glyph-0-13" x="1117.333984" y="338.570312"/>
<use xlink:href="#glyph-0-14" x="1128.742188" y="338.570312"/>
<use xlink:href="#glyph-0-20" x="1135.251953" y="338.570312"/>
<use xlink:href="#glyph-0-21" x="1142.585938" y="338.570312"/>
</g>
<g fill="rgb(100%, 100%, 100%)" fill-opacity="1">
<use xlink:href="#glyph-0-23" x="1149.095703" y="338.570312"/>
</g>
<path fill="none" stroke-width="2" stroke-linecap="butt" stroke-linejoin="miter" stroke="rgb(100%, 0%, 100%)" stroke-opacity="1" stroke-miterlimit="10" d="M 1060 334 L 1100 334 "/>
<g fill="rgb(100%, 100%, 100%)" fill-opacity="1">
<use xlink:href="#glyph-0-19" x="1110" y="364.570312"/>
<use xlink:href="#glyph-0-13" x="1117.333984" y="364.570312"/>
<use xlink:href="#glyph-0-14" x="1128.742188" y="364.570312"/>
<use xlink:href="#glyph-0-20" x="1135.251953" y="364.570312"/>
<use xlink:href="#glyph-0-21" x="1142.585938" y="364.570312"/>
</g>
<g fill="rgb(100%, 100%, 100%)" fill-opacity="1">
<use xlink:href="#glyph-0-23" x="1149.095703" y="364.570312"/>
</g>
<path fill="none" stroke-width="2" stroke-linecap="butt" stroke-linejoin="miter" stroke="rgb(67.843139%, 84.705883%, 90.196079%)" stroke-opacity="1" stroke-miterlimit="10" d="M 1060 360 L 1100 360 "/>
<g fill="rgb(100%, 100%, 100%)" fill-opacity="1">
<use xlink:href="#glyph-0-19" x="1110" y="390.570312"/>
<use xlink:href="#glyph-0-13" x="1117.333984" y="390.570312"/>
<use xlink:href="#glyph-0-14" x="1128.742188" y="390.570312"/>
<use xlink:href="#glyph-0-20" x="1135.251953" y="390.570312"/>
<use xlink:href="#glyph-0-21" x="1142.585938" y="390.570312"/>
</g>
<g fill="rgb(100%, 100%, 100%)" fill-opacity="1">
<use xlink:href="#glyph-0-23" x="1149.095703" y="390.570312"/>
</g>
<path fill="none" stroke-width="2" stroke-linecap="butt" stroke-linejoin="miter" stroke="rgb(100%, 100%, 100%)" stroke-opacity="1" stroke-miterlimit="10" d="M 1060 386 L 1100 386 "/>
<g fill="rgb(100%, 100%, 100%)" fill-opacity="1">
<use xlink:href="#glyph-0-19" x="1110" y="416.570312"/>
<use xlink:href="#glyph-0-13" x="1117.333984" y="416.570312"/>
<use xlink:href="#glyph-0-14" x="1128.742188" y="416.570312"/>
<use xlink:href="#glyph-0-20" x="1135.251953" y="416.570312"/>
<use xlink:href="#glyph-0-21" x="1142.585938" y="416.570312"/>
</g>
<g fill="rgb(100%, 100%, 100%)" fill-opacity="1">
<use xlink:href="#glyph-0-23" x="1149.095703" y="416.570312"/>
</g>
<path fill="none" stroke-width="2" stroke-linecap="butt" stroke-linejoin="miter" stroke="rgb(0%, 39.215687%, 0%)" stroke-opacity="1" stroke-miterlimit="10" d="M 1060 412 L 1100 412 "/>
<g fill="rgb(100%, 100%, 100%)" fill-opacity="1">
<use xlink:href="#glyph-0-19" x="1110" y="442.570312"/>
<use xlink:href="#glyph-0-13" x="1117.333984" y="442.570312"/>
<use xlink:href="#glyph-0-14" x="1128.742188" y="442.570312"/>
<use xlink:href="#glyph-0-20" x="1135.251953" y="442.570312"/>
<use xlink:href="#glyph-0-21" x="1142.585938" y="442.570312"/>
</g>
<g fill="rgb(100%, 100%, 100%)" fill-opacity="1">
<use xlink:href="#glyph-0-23" x="1149.095703" y="442.570312"/>
</g>
<path fill="none" stroke-width="2" stroke-linecap="butt" stroke-linejoin="miter" stroke="rgb(0%, 0%, 54.509807%)" stroke-opacity="1" stroke-miterlimit="10" d="M 1060 438 L 1100 438 "/>
<g fill="rgb(100%, 100%, 100%)" fill-opacity="1">
<use xlink:href="#glyph-0-19" x="1110" y="468.570312"/>
<use xlink:href="#glyph-0-13" x="1117.333984" y="468.570312"/>
<use xlink:href="#glyph-0-14" x="1128.742188" y="468.570312"/>
<use xlink:href="#glyph-0-20" x="1135.251953" y="468.570312"/>
<use xlink:href="#glyph-0-21" x="1142.585938" y="468.570312"/>
</g>
<g fill="rgb(100%, 100%, 100%)" fill-opacity="1">
<use xlink:href="#glyph-0-23" x="1149.095703" y="468.570312"/>
</g>
<path fill="none" stroke-width="2" stroke-linecap="butt" stroke-linejoin="miter" stroke="rgb(100%, 0%, 0%)" stroke-opacity="1" stroke-miterlimit="10" d="M 1060 464 L 1100 464 "/>
<g fill="rgb(100%, 100%, 100%)" fill-opacity="1">
<use xlink:href="#glyph-0-19" x="1110" y="494.570312"/>
<use xlink:href="#glyph-0-13" x="1117.333984" y="494.570312"/>
<use xlink:href="#glyph-0-14" x="1128.742188" y="494.570312"/>
<use xlink:href="#glyph-0-20" x="1135.251953" y="494.570312"/>
<use xlink:href="#glyph-0-21" x="1142.585938" y="494.570312"/>
</g>
<g fill="rgb(100%, 100%, 100%)" fill-opacity="1">
<use xlink:href="#glyph-0-23" x="1149.095703" y="494.570312"/>
</g>
<path fill="none" stroke-width="2" stroke-linecap="butt" stroke-linejoin="miter" stroke="rgb(0%, 50.196081%, 0%)" stroke-opacity="1" stroke-miterlimit="10" d="M 1060 490 L 1100 490 "/>
</svg>
